{
    "asset" : {
        "generator" : "Khronos glTF Blender I/O v3.3.32",
        "version" : "2.0"
    },
    "scene" : 0,
    "scenes" : [
        {
            "name" : "Scene",
            "nodes" : [
                0
            ]
        }
    ],
    "nodes" : [
        {
            "mesh" : 0,
            "name" : "Base",
            "translation" : [
                9.73794174194336,
                0,
                0
            ]
        }
    ],
    "meshes" : [
        {
            "name" : "Mesh",
            "primitives" : [
                {
                    "attributes" : {
                        "POSITION" : 0,
                        "NORMAL" : 1,
                        "TEXCOORD_0" : 2
                    },
                    "indices" : 3
                }
            ]
        }
    ],
    "accessors" : [
        {
            "bufferView" : 0,
            "componentType" : 5126,
            "count" : 8066,
            "max" : [
                1.4021166563034058,
                1.6230205297470093,
                1.4021167755126953
            ],
            "min" : [
                -1.4021166563034058,
                0.25413474440574646,
                -1.4021167755126953
            ],
            "type" : "VEC3"
        },
        {
            "bufferView" : 1,
            "componentType" : 5126,
            "count" : 8066,
            "type" : "VEC3"
        },
        {
            "bufferView" : 2,
            "componentType" : 5126,
            "count" : 8066,
            "type" : "VEC2"
        },
        {
            "bufferView" : 3,
            "componentType" : 5123,
            "count" : 48384,
            "type" : "SCALAR"
        }
    ],
    "bufferViews" : [
        {
            "buffer" : 0,
            "byteLength" : 96792,
            "byteOffset" : 0,
            "target" : 34962
        },
        {
            "buffer" : 0,
            "byteLength" : 96792,
            "byteOffset" : 96792,
            "target" : 34962
        },
        {
            "buffer" : 0,
            "byteLength" : 64528,
            "byteOffset" : 193584,
            "target" : 34962
        },
        {
            "buffer" : 0,
            "byteLength" : 96768,
            "byteOffset" : 258112,
            "target" : 34963
        }
    ],
    "buffers" : [
        {
            "byteLength" : 354880,
            "uri" : "data:application/octet-stream;base64,"
        }
    ]
}
