{
    "asset" : {
        "generator" : "Khronos glTF Blender I/O v3.3.32",
        "version" : "2.0"
    },
    "scene" : 0,
    "scenes" : [
        {
            "name" : "Scene",
            "nodes" : [
                0
            ]
        }
    ],
    "nodes" : [
        {
            "mesh" : 0,
            "name" : "Head",
            "translation" : [
                9.73794174194336,
                0,
                0
            ]
        }
    ],
    "meshes" : [
        {
            "name" : "Mesh",
            "primitives" : [
                {
                    "attributes" : {
                        "POSITION" : 0,
                        "NORMAL" : 1,
                        "TEXCOORD_0" : 2
                    },
                    "indices" : 3
                }
            ]
        }
    ],
    "accessors" : [
        {
            "bufferView" : 0,
            "componentType" : 5126,
            "count" : 13698,
            "max" : [
                0.7703545093536377,
                4.982962608337402,
                0.7703545689582825
            ],
            "min" : [
                -0.7703545689582825,
                3.1916027069091797,
                -0.7703545689582825
            ],
            "type" : "VEC3"
        },
        {
            "bufferView" : 1,
            "componentType" : 5126,
            "count" : 13698,
            "type" : "VEC3"
        },
        {
            "bufferView" : 2,
            "componentType" : 5126,
            "count" : 13698,
            "type" : "VEC2"
        },
        {
            "bufferView" : 3,
            "componentType" : 5123,
            "count" : 82176,
            "type" : "SCALAR"
        }
    ],
    "bufferViews" : [
        {
            "buffer" : 0,
            "byteLength" : 164376,
            "byteOffset" : 0,
            "target" : 34962
        },
        {
            "buffer" : 0,
            "byteLength" : 164376,
            "byteOffset" : 164376,
            "target" : 34962
        },
        {
            "buffer" : 0,
            "byteLength" : 109584,
            "byteOffset" : 328752,
            "target" : 34962
        },
        {
            "buffer" : 0,
            "byteLength" : 164352,
            "byteOffset" : 438336,
            "target" : 34963
        }
    ],
    "buffers" : [
        {
            "byteLength" : 602688,
            "uri" : "data:application/octet-stream;base64,"
        }
    ]
}
